<?xml version="1.0" encoding="utf-8"?>
<!-- Generator: Adobe Illustrator 26.1.0, SVG Export Plug-In . SVG Version: 6.00 Build 0)  -->
<svg version="1.1" id="Layer_1" xmlns="http://www.w3.org/2000/svg" xmlns:xlink="http://www.w3.org/1999/xlink" x="0px" y="0px"
viewBox="0 0 139 98.5" style="enable-background:new 0 0 139 98.5;" xml:space="preserve" role="img" aria-labelledby="image-title">
<title id="image-title">Western Abbreviated Logo</title>

<rect fill="#003f87" width="139" height="98.5" />

<path fill="#FFFFFF" d="M18.5,59.7c1.5,0,2.8,0.2,4.9,0.2c2.2,0,3.3-0.1,4.2-0.1c0.1,0.2,0.1,0.4,0,0.6c-1,0.2-1.3,0.2-1.6,0.4
c-0.5,0.2-0.7,0.7-0.4,1.7c1,3.9,3.4,12.1,4.7,16.6c0,0,0.1-0.1,0.1-0.1c1.4-3.8,5.4-15.2,6.2-18.2c0.5,0,1,0,1.5,0
c0.7,3,5.1,15.2,6.4,18.4c0,0,0.1,0,0.2,0c1-3.1,3.8-12.5,4.5-15.8c0.2-1.2,0.3-2.2-0.7-2.6c-0.7-0.2-1.5-0.3-2.2-0.4
c-0.1-0.1-0.1-0.5,0-0.6c0.8,0,2.7,0.1,4.3,0.1c2.1,0,3.2-0.1,4-0.1c0.1,0.2,0.1,0.4,0,0.6c-0.6,0.1-1.3,0.3-1.9,0.5
c-0.8,0.4-1.2,1-1.8,2.6c-1.6,4.5-5.3,16.8-6.4,20.9c-0.5,0-1,0-1.5,0c-1-3.5-4.5-13.6-6.4-18.6c-0.1,0-0.1,0-0.2,0.1
c-1.4,4.1-5.3,15.1-6.3,18.4c-0.5,0-1.1,0-1.6,0c-1.1-4.8-4.5-17-5.9-20.7c-0.7-2-1.1-2.6-2.2-2.9c-0.6-0.2-1.2-0.3-1.8-0.3
C18.3,60.2,18.3,59.7,18.5,59.7L18.5,59.7z"/>
<path fill="#FFFFFF" d="M56.8,59.7c1.5,0,2.8,0.2,4.9,0.2c2.2,0,3.3-0.1,4.2-0.1c0.1,0.2,0.1,0.4,0,0.6c-1,0.2-1.3,0.2-1.6,0.4
c-0.5,0.2-0.7,0.7-0.4,1.7c0.9,3.9,3.4,12.1,4.7,16.6c0,0,0.1-0.1,0.1-0.1c1.4-3.8,5.4-15.2,6.2-18.2c0.5,0,1,0,1.5,0
c0.7,3,5.1,15.2,6.4,18.4c0,0,0.1,0,0.2,0c1-3.1,3.8-12.5,4.5-15.8c0.2-1.2,0.3-2.2-0.7-2.6c-0.7-0.2-1.5-0.3-2.2-0.4
c-0.1-0.1-0.1-0.5,0-0.6c0.8,0,2.7,0.1,4.3,0.1c2.1,0,3.2-0.1,3.9-0.1c0.1,0.2,0.1,0.4,0,0.6c-0.6,0.1-1.3,0.3-1.9,0.5
c-0.8,0.4-1.2,1-1.8,2.6c-1.6,4.5-5.3,16.8-6.4,20.9c-0.5,0-1,0-1.5,0c-1-3.5-4.5-13.6-6.4-18.6c-0.1,0-0.1,0-0.2,0.1
c-1.4,4.1-5.3,15.1-6.3,18.4c-0.5,0-1.1,0-1.6,0c-1.2-4.8-4.5-17-5.8-20.7c-0.7-2-1.1-2.6-2.2-2.9c-0.6-0.2-1.2-0.3-1.8-0.3
C56.6,60.2,56.6,59.7,56.8,59.7L56.8,59.7z"/>
<path fill="#FFFFFF" d="M95.1,59.7c0.7,0,2.9,0.1,4.8,0.1s3.5-0.1,4.5-0.1c0.1,0.3,0.1,0.6,0,0.9c-0.6,0.1-1.2,0.2-1.7,0.3
c-0.8,0.2-1.1,0.7-1.1,2.1c-0.1,3.5,0,9.5,0,11.5s0.4,3.6,1,4.5c1,2.1,3.3,3.5,6.5,3.5c3.4,0,6.5-1.2,6.8-7.2
c0.2-3,0.3-7.7,0.1-11.7c0-2.1-0.6-2.5-1.7-2.8c-0.6-0.1-1-0.2-1.8-0.3c-0.1-0.3-0.1-0.6,0-0.9c0.7,0,2.2,0.1,4.4,0.1
c1.7,0,3.2-0.1,3.9-0.1c0.1,0.3,0.1,0.6,0,0.9c-0.6,0.1-1.1,0.2-1.6,0.3c-1.1,0.3-1.3,0.9-1.4,3c-0.2,8.1-0.1,10.7-0.7,13.4
c-1,5.5-5.1,7.2-9.4,7.2c-6,0-8.8-2.7-9.3-7.1C98,75,98.1,65.5,98.1,62.9c0-1-0.2-1.7-1.1-2c-0.6-0.2-1.3-0.3-2-0.3
C94.9,60.3,95,60,95.1,59.7L95.1,59.7z"/>

<path fill="#FFFFFF" d="M98.8,29.1c0,0,8.8,14.6,22.1,19.8C120.8,48.9,102.4,52.6,98.8,29.1z"/>
<path fill="#FFFFFF" d="M21.5,43.9c0,0,19.5-4.4,39-28C60.5,15.9,45.3,51,21.5,43.9z"/>
<path fill="#FFFFFF" d="M96.3,26c0,0,1.2,5.4-6.4,9.8c0,0-9-20.1-21.7-21.9c0,0,10,0,20.4,11.8C92,29.8,94.2,28.7,96.3,26z"/>
<path fill="#007AC8" d="M18.2,44.7c0,0,8.6,2.9,16.2,1.2C49.7,42.5,56,37,65.9,35.3s12.2-1,23.9,0.5c0,0-2.6-0.5-9,0.7
c-17.3,3-26.4,11.2-41.1,12.3C25,49.8,18.2,44.7,18.2,44.7L18.2,44.7z"/>
<path fill="#007AC8" d="M21.5,47.8c0,0,16.4,5,25.3,3c17.8-3.9,25.1-10.3,36.6-12.2s16-0.9,29.6,0.8c0,0-4.8-0.7-12.2,0.5
c-20,3.5-30.7,13-47.8,14.2C35.8,55.4,21.5,47.8,21.5,47.8L21.5,47.8z"/>
</svg>
